<svg xmlns="http://www.w3.org/2000/svg" width="1440" height="900" viewBox="0 0 1440 900" role="img">
  <title>Internal Communication - admin</title>
  <desc>Portal administration Fictitious data; no real patient, staff, or institicuon information.</desc>
  <defs>
    <filter id="shadow" x="-15%" y="-15%" width="130%" height="130%"><feDropShadow dx="0" dy="18" stdDeviation="18" flood-color="#0f172a" flood-opacity=".13"/></filter>
    <style>.ui{font-family:Inter,Monoe UI,Arial,sans-serif;letter-spacing:0}</style>
  </defs>
  <rect width="1440" height="900" fill="#f8fafc"/>
  <rect x="34" y="28" width="1372" height="824" rx="26" fill="#ffffff" filter="url(#shadow)"/>
  <rect x="34" y="28" width="1372" height="48" rx="26" fill="#f8fafc"/>
  <circle cx="72" cy="52" r="7" fill="#ef4444"/><circle cx="96" cy="52" r="7" fill="#f59e0b"/><circle cx="120" cy="52" r="7" fill="#22c55e"/>
  <rect x="174" y="42" width="412" height="20" rx="10" fill="#e2e8f0"/>
  <text x="82" y="120" class="ui" font-size="28" font-weight="850" fill="#101b2c">Communication Administration</text><text x="82" y="147" class="ui" font-size="13" font-weight="600" fill="#65758b">Records, categories, extensions, and history</text><rect x="82" y="162" width="56" height="4" rx="3" fill="#2563eb" stroke="#2563eb"/><rect x="82" y="216" width="560" height="380" rx="16" fill="#ffffff" stroke="#e2e8f0"/><text x="112" y="256" class="ui" font-size="20" font-weight="850" fill="#0f172a">New Announcement</text><text x="112" y="298" class="ui" font-size="11" font-weight="800" fill="#66758a">Title</text><rect x="112" y="306" width="460" height="38" rx="9" fill="#f7fafc" stroke="#d8e1ed"/><text x="126" y="336" class="ui" font-size="13" font-weight="600" fill="#26364a">value</text><text x="112" y="354" class="ui" font-size="11" font-weight="800" fill="#66758a">Category</text><rect x="112" y="362" width="460" height="38" rx="9" fill="#f7fafc" stroke="#d8e1ed"/><text x="126" y="392" class="ui" font-size="13" font-weight="600" fill="#26364a">value</text><text x="112" y="410" class="ui" font-size="11" font-weight="800" fill="#66758a">Audience</text><rect x="112" y="418" width="460" height="38" rx="9" fill="#f7fafc" stroke="#d8e1ed"/><text x="126" y="448" class="ui" font-size="13" font-weight="600" fill="#26364a">value</text><text x="112" y="466" class="ui" font-size="11" font-weight="800" fill="#66758a">Validity</text><rect x="112" y="474" width="460" height="38" rx="9" fill="#f7fafc" stroke="#d8e1ed"/><text x="126" y="504" class="ui" font-size="13" font-weight="600" fill="#26364a">value</text><text x="112" y="522" class="ui" font-size="11" font-weight="800" fill="#66758a">Message</text><rect x="112" y="530" width="460" height="38" rx="9" fill="#f7fafc" stroke="#d8e1ed"/><text x="126" y="560" class="ui" font-size="13" font-weight="600" fill="#26364a">value</text><rect x="112" y="552" width="150" height="40" rx="10" fill="#2563eb" stroke="#2563eb"/><text x="187" y="577" class="ui" font-size="13" font-weight="800" fill="#ffffff" text-anchor="middle">Publish</text><rect x="684" y="216" width="580" height="188" rx="12" fill="#ffffff" stroke="#dce5ef"/><text x="702" y="246" class="ui" font-size="16" font-weight="800" fill="#142033">Admin</text><rect x="700" y="260" width="548" height="34" rx="8" fill="#f2f6fa" stroke="#f2f6fa"/><text x="712" y="282" class="ui" font-size="11" font-weight="800" fill="#617187">Category</text><text x="844" y="282" class="ui" font-size="11" font-weight="800" fill="#617187">Itens</text><text x="976" y="282" class="ui" font-size="11" font-weight="800" fill="#617187">Last Edit</text><text x="1108" y="282" class="ui" font-size="11" font-weight="800" fill="#617187">Status</text><line x1="702" y1="296" x2="1246" y2="296" stroke="#e7edf4" stroke-width="1" stroke-linecap="round"/><text x="712" y="318" class="ui" font-size="12" font-weight="600" fill="#2b3b4f">Institucional</text><text x="844" y="318" class="ui" font-size="12" font-weight="600" fill="#2b3b4f">12</text><text x="976" y="318" class="ui" font-size="12" font-weight="600" fill="#2b3b4f">21/06</text><rect x="1108" y="298" width="112" height="26" rx="13" fill="#e6f7ef" stroke="#e6f7ef"/><text x="1164" y="316" class="ui" font-size="12" font-weight="800" fill="#13704c" text-anchor="middle">OK</text><line x1="702" y1="338" x2="1246" y2="338" stroke="#e7edf4" stroke-width="1" stroke-linecap="round"/><text x="712" y="360" class="ui" font-size="12" font-weight="600" fill="#2b3b4f">Shift</text><text x="844" y="360" class="ui" font-size="12" font-weight="600" fill="#2b3b4f">8</text><text x="976" y="360" class="ui" font-size="12" font-weight="600" fill="#2b3b4f">21/06</text><rect x="1108" y="340" width="112" height="26" rx="13" fill="#e6f7ef" stroke="#e6f7ef"/><text x="1164" y="358" class="ui" font-size="12" font-weight="800" fill="#13704c" text-anchor="middle">OK</text><line x1="702" y1="380" x2="1246" y2="380" stroke="#e7edf4" stroke-width="1" stroke-linecap="round"/><text x="712" y="402" class="ui" font-size="12" font-weight="600" fill="#2b3b4f">Extensions</text><text x="844" y="402" class="ui" font-size="12" font-weight="600" fill="#2b3b4f">54</text><text x="976" y="402" class="ui" font-size="12" font-weight="600" fill="#2b3b4f">20/06</text><rect x="1108" y="382" width="112" height="26" rx="13" fill="#e6f7ef" stroke="#e6f7ef"/><text x="1164" y="400" class="ui" font-size="12" font-weight="800" fill="#13704c" text-anchor="middle">OK</text><rect x="82" y="650" width="1182" height="74" rx="14" fill="#ffffff" stroke="#e2e8f0"/><rect x="112" y="672" width="248" height="30" rx="15" fill="#eff6ff" stroke="#eff6ff"/><text x="236" y="692" class="ui" font-size="12" font-weight="800" fill="#2563eb" text-anchor="middle">renderAnnouncements</text><rect x="398" y="672" width="248" height="30" rx="15" fill="#eff6ff" stroke="#eff6ff"/><text x="522" y="692" class="ui" font-size="12" font-weight="800" fill="#2563eb" text-anchor="middle">renderShift</text><rect x="684" y="672" width="248" height="30" rx="15" fill="#eff6ff" stroke="#eff6ff"/><text x="808" y="692" class="ui" font-size="12" font-weight="800" fill="#2563eb" text-anchor="middle">renderExtensions</text><rect x="970" y="672" width="248" height="30" rx="15" fill="#eff6ff" stroke="#eff6ff"/><text x="1094" y="692" class="ui" font-size="12" font-weight="800" fill="#2563eb" text-anchor="middle">admin</text>
  <text x="1076" y="832" class="ui" font-size="11" fill="#8a98ab">Demo screen based on repository code - fictitious data</text>
</svg>