<svg xmlns="http://www.w3.org/2000/svg" width="1440" height="900" viewBox="0 0 1440 900" role="img">
  <title>Comunicação Interna - portal</title>
  <desc>Mural, plantão, ramais e login Dados fictícios, sem informação real de pacientes, profissionais ou instituição.</desc>
  <defs>
    <filter id="shadow" x="-15%" y="-15%" width="130%" height="130%"><feDropShadow dx="0" dy="18" stdDeviation="18" flood-color="#0f172a" flood-opacity=".13"/></filter>
    <style>.ui{font-family:Inter,Segoe UI,Arial,sans-serif;letter-spacing:0}</style>
  </defs>
  <rect width="1440" height="900" fill="#f8fafc"/>
  <rect x="34" y="28" width="1372" height="824" rx="26" fill="#ffffff" filter="url(#shadow)"/>
  <rect x="34" y="28" width="1372" height="48" rx="26" fill="#f8fafc"/>
  <circle cx="72" cy="52" r="7" fill="#ef4444"/><circle cx="96" cy="52" r="7" fill="#f59e0b"/><circle cx="120" cy="52" r="7" fill="#22c55e"/>
  <rect x="174" y="42" width="412" height="20" rx="10" fill="#e2e8f0"/>
  <rect x="0" y="76" width="1440" height="824" rx="0" fill="#f8fafc" stroke="#f8fafc"/><rect x="82" y="104" width="1276" height="70" rx="16" fill="#ffffff" stroke="#e2e8f0"/><text x="112" y="146" class="ui" font-size="24" font-weight="850" fill="#0f172a">Comunicação Interna</text><rect x="520" y="124" width="112" height="32" rx="16" fill="#2563eb" stroke="#2563eb"/><text x="576" y="145" class="ui" font-size="12" font-weight="800" fill="#ffffff" text-anchor="middle">Comunicados</text><rect x="648" y="124" width="112" height="32" rx="16" fill="#f1f5f9" stroke="#f1f5f9"/><text x="704" y="145" class="ui" font-size="12" font-weight="800" fill="#334155" text-anchor="middle">Plantão</text><rect x="776" y="124" width="112" height="32" rx="16" fill="#f1f5f9" stroke="#f1f5f9"/><text x="832" y="145" class="ui" font-size="12" font-weight="800" fill="#334155" text-anchor="middle">Ramais</text><rect x="904" y="124" width="112" height="32" rx="16" fill="#f1f5f9" stroke="#f1f5f9"/><text x="960" y="145" class="ui" font-size="12" font-weight="800" fill="#334155" text-anchor="middle">Admin</text><text x="1052" y="112" class="ui" font-size="11" font-weight="800" fill="#66758a">login ramal</text><rect x="1052" y="120" width="128" height="38" rx="9" fill="#f7fafc" stroke="#d8e1ed"/><text x="1066" y="150" class="ui" font-size="13" font-weight="600" fill="#26364a">0000</text><rect x="1198" y="120" width="100" height="38" rx="10" fill="#2563eb" stroke="#2563eb"/><text x="1248" y="144" class="ui" font-size="13" font-weight="800" fill="#ffffff" text-anchor="middle">Entrar</text><rect x="82" y="224" width="760" height="188" rx="12" fill="#ffffff" stroke="#dce5ef"/><text x="100" y="254" class="ui" font-size="16" font-weight="800" fill="#142033">Mural de comunicados</text><rect x="98" y="268" width="728" height="34" rx="8" fill="#f2f6fa" stroke="#f2f6fa"/><text x="110" y="290" class="ui" font-size="11" font-weight="800" fill="#617187">Data</text><text x="287" y="290" class="ui" font-size="11" font-weight="800" fill="#617187">Título</text><text x="464" y="290" class="ui" font-size="11" font-weight="800" fill="#617187">Categoria</text><text x="641" y="290" class="ui" font-size="11" font-weight="800" fill="#617187">Status</text><line x1="100" y1="304" x2="824" y2="304" stroke="#e7edf4" stroke-width="1" stroke-linecap="round"/><text x="110" y="326" class="ui" font-size="12" font-weight="600" fill="#2b3b4f">21/06</text><text x="287" y="326" class="ui" font-size="12" font-weight="600" fill="#2b3b4f">Comunicado geral</text><text x="464" y="326" class="ui" font-size="12" font-weight="600" fill="#2b3b4f">Institucional</text><rect x="641" y="306" width="112" height="26" rx="13" fill="#e6f7ef" stroke="#e6f7ef"/><text x="697" y="324" class="ui" font-size="12" font-weight="800" fill="#13704c" text-anchor="middle">Publicado</text><line x1="100" y1="346" x2="824" y2="346" stroke="#e7edf4" stroke-width="1" stroke-linecap="round"/><text x="110" y="368" class="ui" font-size="12" font-weight="600" fill="#2b3b4f">21/06</text><text x="287" y="368" class="ui" font-size="12" font-weight="600" fill="#2b3b4f">Aviso de plantão</text><text x="464" y="368" class="ui" font-size="12" font-weight="600" fill="#2b3b4f">Plantão</text><rect x="641" y="348" width="112" height="26" rx="13" fill="#e6f7ef" stroke="#e6f7ef"/><text x="697" y="366" class="ui" font-size="12" font-weight="800" fill="#13704c" text-anchor="middle">Publicado</text><line x1="100" y1="388" x2="824" y2="388" stroke="#e7edf4" stroke-width="1" stroke-linecap="round"/><text x="110" y="410" class="ui" font-size="12" font-weight="600" fill="#2b3b4f">20/06</text><text x="287" y="410" class="ui" font-size="12" font-weight="600" fill="#2b3b4f">Manutenção</text><text x="464" y="410" class="ui" font-size="12" font-weight="600" fill="#2b3b4f">TI</text><rect x="641" y="390" width="112" height="26" rx="13" fill="#fff6df" stroke="#fff6df"/><text x="697" y="408" class="ui" font-size="12" font-weight="800" fill="#9a6208" text-anchor="middle">Revisar</text><rect x="880" y="224" width="384" height="300" rx="16" fill="#ffffff" stroke="#e2e8f0"/><text x="910" y="266" class="ui" font-size="20" font-weight="850" fill="#0f172a">Ramais</text><rect x="910" y="304" width="210" height="30" rx="15" fill="#f1f5f9" stroke="#f1f5f9"/><text x="1015" y="324" class="ui" font-size="12" font-weight="800" fill="#334155" text-anchor="middle">Recepção 1001</text><rect x="910" y="348" width="210" height="30" rx="15" fill="#f1f5f9" stroke="#f1f5f9"/><text x="1015" y="368" class="ui" font-size="12" font-weight="800" fill="#334155" text-anchor="middle">NIR 1020</text><rect x="910" y="392" width="210" height="30" rx="15" fill="#f1f5f9" stroke="#f1f5f9"/><text x="1015" y="412" class="ui" font-size="12" font-weight="800" fill="#334155" text-anchor="middle">UTI 1030</text><rect x="910" y="436" width="210" height="30" rx="15" fill="#f1f5f9" stroke="#f1f5f9"/><text x="1015" y="456" class="ui" font-size="12" font-weight="800" fill="#334155" text-anchor="middle">TI 1099</text><rect x="82" y="570" width="1182" height="180" rx="12" fill="#ffffff" stroke="#dce5ef"/><text x="100" y="600" class="ui" font-size="15" font-weight="800" fill="#142033">Atividade por módulo</text><rect x="112" y="648" width="263" height="68" rx="5" fill="#2563eb" stroke="#2563eb" opacity="0.52"/><text x="243" y="736" class="ui" font-size="10" font-weight="700" fill="#738196" text-anchor="middle">Com</text><rect x="393" y="614" width="263" height="102" rx="5" fill="#2563eb" stroke="#2563eb" opacity="0.59"/><text x="524" y="736" class="ui" font-size="10" font-weight="700" fill="#738196" text-anchor="middle">Plant</text><rect x="674" y="665" width="263" height="51" rx="5" fill="#2563eb" stroke="#2563eb" opacity="0.66"/><text x="805" y="736" class="ui" font-size="10" font-weight="700" fill="#738196" text-anchor="middle">Ram</text><rect x="955" y="677" width="263" height="39" rx="5" fill="#2563eb" stroke="#2563eb" opacity="0.73"/><text x="1086" y="736" class="ui" font-size="10" font-weight="700" fill="#738196" text-anchor="middle">Adm</text><line x1="106" y1="716" x2="1240" y2="716" stroke="#d6dfeb" stroke-width="1" stroke-linecap="round"/>
  <text x="1076" y="832" class="ui" font-size="11" fill="#8a98ab">Tela demonstrativa baseada no código do repositório - dados fictícios</text>
</svg>